<svg width="32" height="32" viewBox="0 0 32 32" fill="none" xmlns="http://www.w3.org/2000/svg">
<path d="M15.9999 30.6667C7.88819 30.6667 1.33325 24.13 1.33325 16.0409C1.33325 12.1189 2.89005 8.44201 5.59396 5.66392C8.37981 2.88583 12.067 1.33337 15.9999 1.33337C24.1116 1.33337 30.6666 7.87005 30.6666 15.9592C30.6666 24.0483 24.1116 30.585 15.9999 30.6667Z" fill="url(#paint0_linear)"/>
<mask id="mask0" mask-type="alpha" maskUnits="userSpaceOnUse" x="1" y="1" width="30" height="30">
<path d="M15.9999 30.6667C7.88819 30.6667 1.33325 24.13 1.33325 16.0409C1.33325 12.1189 2.89005 8.44201 5.59396 5.66392C8.37981 2.88583 12.067 1.33337 15.9999 1.33337C24.1116 1.33337 30.6666 7.87005 30.6666 15.9592C30.6666 24.0483 24.1116 30.585 15.9999 30.6667Z" fill="url(#paint1_linear)"/>
</mask>
<g mask="url(#mask0)">
<path d="M32.6105 13.0631L-0.350586 13.1099L-0.342409 18.9401L32.6186 18.8934L32.6105 13.0631Z" fill="#121212"/>
<path d="M32.6105 24.8079L-0.350586 24.8546L-0.342409 30.6849L32.6186 30.6381L32.6105 24.8079Z" fill="#121212"/>
<path d="M32.6105 1.31502L-0.350586 1.3623L-0.342502 7.19257L32.6185 7.14528L32.6105 1.31502Z" fill="#121212"/>
</g>
<defs>
<linearGradient id="paint0_linear" x1="1.33325" y1="16.0032" x2="30.6729" y2="16.0032" gradientUnits="userSpaceOnUse">
<stop stop-color="#FF9900"/>
<stop offset="0.765625" stop-color="#FFCD00"/>
</linearGradient>
<linearGradient id="paint1_linear" x1="1.32161" y1="16.0166" x2="30.6733" y2="15.975" gradientUnits="userSpaceOnUse">
<stop stop-color="#E8990C"/>
<stop offset="0.3903" stop-color="#F4B40D"/>
<stop offset="0.7418" stop-color="#FCC60D"/>
<stop offset="1" stop-color="#FFCC0D"/>
</linearGradient>
</defs>
</svg>
