<svg width="36" height="36" viewBox="0 0 36 36" fill="none" xmlns="http://www.w3.org/2000/svg">
<path opacity="0.2" d="M36 18.0087C36 27.9247 27.9208 36 18 36C8.07915 36 0 27.9247 0 18.0087C0 8.07525 8.07915 0 18 0C27.9208 0 36 8.07525 36 18.0087Z" fill="#121212"/>
<path d="M25.2001 18.0087C25.2001 18.4637 25.0569 18.9203 24.7706 19.286C24.7169 19.3578 24.4663 19.6535 24.2694 19.8459L24.162 19.9509C22.6586 21.5449 18.918 23.942 17.0208 24.7101C17.0208 24.7276 15.8933 25.1842 15.3563 25.2H15.2848C14.4615 25.2 13.6919 24.7468 13.2981 24.0119C13.0833 23.6078 12.8865 22.4355 12.8686 22.4197C12.7075 21.3682 12.6001 19.7584 12.6001 17.9912C12.6001 16.1383 12.7075 14.4569 12.9044 13.4245C12.9044 13.407 13.1012 12.4622 13.2265 12.1473C13.4234 11.6941 13.7813 11.3074 14.2288 11.0624C14.5867 10.8892 14.9626 10.8 15.3563 10.8C15.768 10.8192 16.5376 11.0799 16.8419 11.2024C18.8464 11.9723 22.6765 14.4918 24.1441 16.0316C24.3947 16.2765 24.6632 16.5757 24.7348 16.644C25.039 17.0289 25.2001 17.5013 25.2001 18.0087Z" fill="white"/>
</svg>
