<svg width="32" height="32" viewBox="0 0 32 32" fill="none" xmlns="http://www.w3.org/2000/svg">
<g clip-path="url(#clip0)">
<path d="M16 0C7.1622 0 0 7.1622 0 16C0 20.7685 2.08504 25.052 5.39843 27.9874C8.22677 30.4819 11.937 32 16 32C20.0693 32 23.7795 30.4819 26.6016 27.9811C29.915 25.052 32 20.7685 32 16C32 7.1622 24.8378 0 16 0Z" fill="#F5F5F5"/>
<path d="M25.3481 26.6834C24.5292 26.0724 23.0426 25.0582 21.4237 24.3086C19.8048 23.5653 18.8536 21.8204 19.1119 20.063C19.1119 20.0378 19.1182 20.0126 19.1245 19.9811C19.1245 19.9811 22.8095 17.4866 22.2993 15.0551C22.2993 15.0551 22.4127 15.0614 22.5828 15.0488C24.208 14.8976 24.3087 12.4787 22.7024 12.2204C22.6898 12.2204 22.671 12.2141 22.6584 12.2141L22.608 11.9496C23.0993 10.2299 24.2961 5.02044 20.6741 5.52438C20.6741 5.52438 18.0725 1.22201 12.5733 3.29446C7.0678 5.3606 8.50402 10.2929 8.50402 10.2929L9.18434 12.2582C7.70402 12.6236 7.84261 14.9102 9.41741 15.0551C9.58749 15.0677 9.70717 15.0614 9.70717 15.0614C9.19064 17.4929 12.8757 19.9874 12.8757 19.9874C12.882 20.0189 12.882 20.0441 12.8883 20.0693C13.1402 21.8267 12.1891 23.5716 10.5765 24.3149C8.95127 25.0645 7.47095 26.085 6.65205 26.6897C6.16072 27.0488 5.72607 27.4834 5.39221 27.9937C8.22686 30.4819 11.9371 32 16.0001 32C20.0694 32 23.7796 30.4819 26.6017 27.9811C26.2741 27.4771 25.8395 27.0425 25.3481 26.6834Z" fill="#CACACA"/>
</g>
<defs>
<clipPath id="clip0">
<rect width="32" height="32" fill="white"/>
</clipPath>
</defs>
</svg>
